<?xml version="1.0" encoding="utf-8"?>
<!-- Generator: Adobe Illustrator 25.4.1, SVG Export Plug-In . SVG Version: 6.00 Build 0)  -->
<svg version="1.1" id="Vector_layer_00000146496503039551900170000008453411140109340559_"
	 xmlns="http://www.w3.org/2000/svg" xmlns:xlink="http://www.w3.org/1999/xlink" x="0px" y="0px" viewBox="0 0 500 301"
	 style="enable-background:new 0 0 500 301;" xml:space="preserve">
<path d="M140,146.6c-8.1-6.3-16.6-12.2-24.2-19.1c-7.4-6.7-13.9-14.5-20.5-22C82.4,90.2,68.7,75.2,60.6,56.8c-2-5-5-10.1-4.9-15.7
	c-0.3-3.2,2.4-7.6,5.7-4.7c1.1,0.9,3.2,2.4,1.8,3.9c-1.3,1.3-2.6-0.1-3.5-1.2c2.9,21.8,44,59,61,74c9.3,7.7,20,13.5,28.6,22.1
	c5.2,5.2,0.8,12.8-5.1,12.8C142.9,148,141.4,147.6,140,146.6z"/>
<path d="M146,275.5c-1.9-11.6-1.6-23.4-1.3-35.1c0.3-14.8,1.5-29.6,3.5-44.2c2.7-20.1,8.2-39.5,12.5-59.3
	c6.4-31.1,10.1-62.8,12.4-94.4c0.1-6.1,0.9-12.6-1.4-18.4c-0.7-1-0.1-2.5,0.9-2.9c8.3-2,4.8,35.2,4.7,40.7
	c-1.5,22.8-3.1,45.5-6.3,68.1c-2.3,16.7-5.7,33.2-7.6,50c-1.7,14.7-2.4,29.4-2.4,43.9c-0.3,17,1.4,34,0.9,51c-0.4,4.7-4.2,7.2-8,7.2
	C150.4,282,146.8,279.9,146,275.5z"/>
<path d="M254.3,262.2c-19.2-4.7-26.1-23.8-26.7-41.7c-0.8-17.4,1-35.3,7.4-51.7c-6.9,0.7-9.1-9.2-2.4-11.4
	c10.1-3.6,20.4-5.2,30.5-0.8c13,4.2,22.5,13.6,26.8,26.5c5.7,15.7,9.8,33.5,5.7,50.1c-4.2,15.7-18.8,29.6-35.3,29.6
	C258.3,262.8,256.3,262.6,254.3,262.2z M242.4,167.3c-3.4,5-4.2,11.2-5.7,16.9c-1.4,7.9-2,15.9-1.8,23.9c-0.1,16.6,3.7,42.8,25,42.4
	c10.7-1.6,18.6-10.8,21.4-20.8c2.7-11.1,0.1-22.6-2.3-33.5c-2.2-7.8-4.1-16.7-10.6-22c-5.5-4.1-12.3-7.2-19.2-7.7
	c-1,1.4-3,1.6-4.3,0.4C244,167,243.2,167.1,242.4,167.3z"/>
<path d="M371.3,256.2c-32.8-3.2-36.8-36-35.6-62.8c0.3-9.7,1.2-19.4,1.6-29.2c-0.2-1.8,2.4-2.3,2.9-0.6c1.1,17.2-1.2,34.7,2.5,51.7
	c2,9.5,5.3,19.8,13.7,25.4c7.7,4.8,17.9,4.8,25.9,0.8c9.2-4.7,17.6-13.6,16.3-24.6c-1.7-14.2-5.9-28.2-12-41.1
	c-1.6-3.2-3.7-6-5.9-8.7c-2.6-3-5.5-6.5-2.1-10.2c5.1-4.6,10.4,2.4,14.3,5.4c12.1,12.1,20.7,40.5,21.4,57.5
	c0.4,20.7-19.6,36.5-39.4,36.5C373.7,256.4,372.5,256.4,371.3,256.2z"/>
</svg>
